<svg width="57" height="57" viewBox="0 0 57 57" fill="none" xmlns="http://www.w3.org/2000/svg">
<path d="M29.4766 10.1641V33.1089C29.4766 36.9211 28.2803 39.9357 25.8877 42.1528C23.5111 44.37 20.2572 45.4785 16.126 45.4785C12.0586 45.4785 8.82861 44.4019 6.43604 42.2485C4.04346 40.0952 2.82324 37.1364 2.77539 33.3721V10.1641H9.95312V33.1567C9.95312 35.4377 10.4954 37.1045 11.5801 38.1572C12.6807 39.194 14.196 39.7124 16.126 39.7124C20.1615 39.7124 22.2111 37.591 22.2749 33.3481V10.1641H29.4766Z" fill="white"/>
<path d="M16.0442 29.1206C16.3798 29.4387 21.0273 30.3583 21.0273 30.3583C21.0273 30.3583 21.655 30.0676 21.9756 29.9564L24.043 29.0569C24.043 29.0569 28.0891 29.3591 30.1546 29.2657C31.0488 29.2253 32.0708 29.0559 32.9629 28.9199C33.9011 28.7768 34.8134 28.5763 35.7373 28.3558C36.5797 28.1547 37.5085 27.9614 38.2585 27.5134C38.7985 27.1908 39.274 26.7829 39.8242 26.4792C40.467 26.1244 40.9876 25.563 41.6696 25.3011C41.7698 25.2627 41.9918 25.0624 41.9561 25.0868C41.5963 25.3329 41.35 25.8414 41.0705 26.1676C39.4724 28.0324 38.0411 30.025 36.3245 31.7549C34.9492 33.1409 33.3626 34.6114 32.2133 36.2019C29.6413 39.7617 25.8764 42.3295 22.8784 45.4763C21.9608 46.4395 21.2302 47.5197 20.6669 48.7133C20.4664 49.1383 20.1122 49.4133 19.8831 49.8085C19.6567 50.199 19.6177 50.6883 19.508 51.1176C19.1363 52.5717 18.7056 53.9122 20.4758 54.3326C21.6033 54.6003 22.5983 53.6852 23.5487 53.2493C25.9503 52.1476 28.4859 51.5207 31.0107 50.7234C33.2382 50.0199 35.4485 49.7672 37.7035 49.2222C39.0197 48.9041 40.3658 48.5064 41.7084 48.3309C44.5774 47.956 47.4753 48.2023 50.2541 48.9249C51.8668 49.3442 53.2725 49.5748 54.0371 51.0596" stroke="#13B48D" stroke-width="4" stroke-linecap="round"/>
</svg>
