<svg width="25" height="22" viewBox="0 0 25 22" fill="none" xmlns="http://www.w3.org/2000/svg">
<path d="M0.892857 4.04082H24.1071C24.6003 4.04082 25 3.63881 25 3.14286V0.897959C25 0.402005 24.6003 0 24.1071 0H0.892857C0.399721 0 0 0.402005 0 0.897959V3.14286C0 3.63881 0.399721 4.04082 0.892857 4.04082ZM0.892857 13.0204H24.1071C24.6003 13.0204 25 12.6184 25 12.1224V9.87755C25 9.3816 24.6003 8.97959 24.1071 8.97959H0.892857C0.399721 8.97959 0 9.3816 0 9.87755V12.1224C0 12.6184 0.399721 13.0204 0.892857 13.0204ZM0.892857 22H24.1071C24.6003 22 25 21.598 25 21.102V18.8571C25 18.3612 24.6003 17.9592 24.1071 17.9592H0.892857C0.399721 17.9592 0 18.3612 0 18.8571V21.102C0 21.598 0.399721 22 0.892857 22Z" fill="white"/>
</svg>
