<svg width="18" height="18" viewBox="0 0 18 18" fill="none" xmlns="http://www.w3.org/2000/svg">
<path d="M12.3679 5.51613C11.8581 2.2754 10.6554 0 9.25584 0C7.85627 0 6.65363 2.2754 6.14374 5.51613H12.3679ZM5.88 9C5.88 9.80564 5.9222 10.5786 5.99604 11.3226H12.5121C12.586 10.5786 12.6282 9.80564 12.6282 9C12.6282 8.19436 12.586 7.42137 12.5121 6.67742H5.99604C5.9222 7.42137 5.88 8.19436 5.88 9ZM17.2981 5.51613C16.2924 3.05202 14.2563 1.14677 11.742 0.377419C12.6 1.60403 13.1908 3.45121 13.5003 5.51613H17.2981ZM6.76616 0.377419C4.25537 1.14677 2.2158 3.05202 1.2136 5.51613H5.01142C5.31736 3.45121 5.90813 1.60403 6.76616 0.377419ZM17.6744 6.67742H13.6409C13.7148 7.43952 13.757 8.21976 13.757 9C13.757 9.78024 13.7148 10.5605 13.6409 11.3226H17.6708C17.8642 10.5786 17.9733 9.80564 17.9733 9C17.9733 8.19436 17.8642 7.42137 17.6744 6.67742ZM4.75472 9C4.75472 8.21976 4.79692 7.43952 4.87076 6.67742H0.837331C0.64744 7.42137 0.534912 8.19436 0.534912 9C0.534912 9.80564 0.64744 10.5786 0.837331 11.3226H4.86725C4.79692 10.5605 4.75472 9.78024 4.75472 9ZM6.14374 12.4839C6.65363 15.7246 7.85627 18 9.25584 18C10.6554 18 11.8581 15.7246 12.3679 12.4839H6.14374ZM11.7455 17.6226C14.2563 16.8532 16.2959 14.948 17.3016 12.4839H13.5038C13.1943 14.5488 12.6036 16.396 11.7455 17.6226ZM1.2136 12.4839C2.21932 14.948 4.25537 16.8532 6.76967 17.6226C5.91165 16.396 5.32087 14.5488 5.01142 12.4839H1.2136Z" fill="white"/>
</svg>
