<svg width="18" height="18" viewBox="0 0 18 18" fill="none" xmlns="http://www.w3.org/2000/svg">
<path d="M6.41848 14.4936C6.41848 14.568 6.33884 14.6276 6.23844 14.6276C6.12418 14.6387 6.04454 14.5792 6.04454 14.4936C6.04454 14.4191 6.12418 14.3596 6.22459 14.3596C6.32846 14.3484 6.41848 14.408 6.41848 14.4936ZM5.34169 14.3261C5.31745 14.4005 5.3867 14.4861 5.49057 14.5085C5.58059 14.5457 5.68446 14.5085 5.70523 14.434C5.72601 14.3596 5.66022 14.274 5.55635 14.2405C5.46633 14.2144 5.36592 14.2516 5.34169 14.3261ZM6.87205 14.2628C6.77164 14.2889 6.70239 14.3596 6.71278 14.4452C6.72317 14.5196 6.81319 14.568 6.91706 14.542C7.01747 14.5159 7.08671 14.4452 7.07632 14.3707C7.06594 14.3 6.97245 14.2516 6.87205 14.2628ZM9.15027 0C4.34799 0 0.674438 3.91929 0.674438 9.08175C0.674438 13.2095 3.09116 16.7417 6.54312 17.9848C6.9863 18.0704 7.14211 17.7764 7.14211 17.5345C7.14211 17.3037 7.13172 16.0308 7.13172 15.2491C7.13172 15.2491 4.70808 15.8074 4.19911 14.14C4.19911 14.14 3.8044 13.0569 3.23658 12.7777C3.23658 12.7777 2.4437 12.1934 3.29198 12.2045C3.29198 12.2045 4.1541 12.279 4.62844 13.1648C5.3867 14.6015 6.65738 14.1884 7.1525 13.9427C7.23213 13.3472 7.45718 12.934 7.70647 12.6884C5.77102 12.4576 3.81825 12.1561 3.81825 8.57555C3.81825 7.55199 4.08139 7.03835 4.63537 6.38328C4.54535 6.14134 4.25105 5.14384 4.72539 3.85602C5.44902 3.61409 7.11441 4.86097 7.11441 4.86097C7.80688 4.65253 8.55129 4.5446 9.28877 4.5446C10.0262 4.5446 10.7707 4.65253 11.4631 4.86097C11.4631 4.86097 13.1285 3.61037 13.8521 3.85602C14.3265 5.14756 14.0322 6.14134 13.9422 6.38328C14.4961 7.04208 14.8355 7.55571 14.8355 8.57555C14.8355 12.1673 12.7961 12.4539 10.8607 12.6884C11.1792 12.9824 11.4493 13.5407 11.4493 14.4154C11.4493 15.6697 11.4389 17.2218 11.4389 17.527C11.4389 17.769 11.5982 18.063 12.0379 17.9774C15.5002 16.7417 17.8477 13.2095 17.8477 9.08175C17.8477 3.91929 13.9526 0 9.15027 0ZM4.03984 12.8373C3.99483 12.8745 4.00522 12.9601 4.06408 13.0308C4.11948 13.0904 4.19911 13.1164 4.24412 13.068C4.28913 13.0308 4.27875 12.9452 4.21989 12.8745C4.16449 12.8149 4.08485 12.7889 4.03984 12.8373ZM3.66591 12.5358C3.64167 12.5842 3.6763 12.6437 3.74554 12.6809C3.80094 12.7182 3.87019 12.707 3.89442 12.6549C3.91866 12.6065 3.88404 12.547 3.81479 12.5097C3.74554 12.4874 3.69015 12.4986 3.66591 12.5358ZM4.78771 13.8608C4.73231 13.9092 4.75309 14.0209 4.83272 14.0916C4.91236 14.1772 5.01276 14.1884 5.05777 14.1288C5.10279 14.0804 5.08201 13.9688 5.01276 13.898C4.93659 13.8124 4.83272 13.8013 4.78771 13.8608ZM4.393 13.3137C4.33761 13.3509 4.33761 13.4477 4.393 13.5333C4.4484 13.6189 4.54188 13.6561 4.58689 13.6189C4.64229 13.5705 4.64229 13.4737 4.58689 13.3881C4.53842 13.3025 4.4484 13.2653 4.393 13.3137Z" fill="white"/>
</svg>
