<svg width="26" height="26" viewBox="0 0 26 26" fill="none" xmlns="http://www.w3.org/2000/svg">
<path d="M13.0029 6.33252C9.31389 6.33252 6.33832 9.30809 6.33832 12.9971C6.33832 16.6861 9.31389 19.6617 13.0029 19.6617C16.6919 19.6617 19.6675 16.6861 19.6675 12.9971C19.6675 9.30809 16.6919 6.33252 13.0029 6.33252ZM13.0029 17.3299C10.619 17.3299 8.67005 15.3868 8.67005 12.9971C8.67005 10.6074 10.6132 8.66425 13.0029 8.66425C15.3926 8.66425 17.3358 10.6074 17.3358 12.9971C17.3358 15.3868 15.3868 17.3299 13.0029 17.3299V17.3299ZM21.4946 6.0599C21.4946 6.92415 20.7986 7.61439 19.9401 7.61439C19.0759 7.61439 18.3856 6.91835 18.3856 6.0599C18.3856 5.20145 19.0817 4.50541 19.9401 4.50541C20.7986 4.50541 21.4946 5.20145 21.4946 6.0599ZM25.9086 7.63759C25.81 5.55527 25.3344 3.71076 23.8089 2.19108C22.2892 0.671389 20.4447 0.195761 18.3624 0.0913553C16.2163 -0.0304518 9.78371 -0.0304518 7.63759 0.0913553C5.56107 0.189961 3.71656 0.665588 2.19108 2.18528C0.665589 3.70496 0.195761 5.54947 0.0913553 7.63179C-0.0304518 9.77791 -0.0304518 16.2105 0.0913553 18.3566C0.189961 20.4389 0.665589 22.2834 2.19108 23.8031C3.71656 25.3228 5.55527 25.7984 7.63759 25.9028C9.78371 26.0247 16.2163 26.0247 18.3624 25.9028C20.4447 25.8042 22.2892 25.3286 23.8089 23.8031C25.3286 22.2834 25.8042 20.4389 25.9086 18.3566C26.0305 16.2105 26.0305 9.78371 25.9086 7.63759V7.63759ZM23.1361 20.6593C22.6837 21.7962 21.8078 22.6721 20.6651 23.1303C18.954 23.8089 14.8938 23.6523 13.0029 23.6523C11.112 23.6523 7.04596 23.8031 5.34066 23.1303C4.20379 22.6779 3.32794 21.802 2.86972 20.6593C2.19108 18.9482 2.34769 14.888 2.34769 12.9971C2.34769 11.1062 2.19688 7.04016 2.86972 5.33486C3.32214 4.19799 4.19799 3.32214 5.34066 2.86392C7.05176 2.18528 11.112 2.34188 13.0029 2.34188C14.8938 2.34188 18.9598 2.19108 20.6651 2.86392C21.802 3.31634 22.6779 4.19219 23.1361 5.33486C23.8147 7.04596 23.6581 11.1062 23.6581 12.9971C23.6581 14.888 23.8147 18.954 23.1361 20.6593Z" fill="white"/>
</svg>
