<svg width="17" height="16" viewBox="0 0 17 16" fill="none" xmlns="http://www.w3.org/2000/svg">
<path d="M15.3504 6.80281L16.1868 7.59558C16.5409 7.93126 16.5409 8.47405 16.1868 8.80616L8.86666 15.7482C8.51252 16.0839 7.93987 16.0839 7.5895 15.7482L0.265604 8.80616C-0.0885347 8.47048 -0.0885347 7.92769 0.265604 7.59558L1.10198 6.80281C1.45988 6.46356 2.04383 6.47071 2.39421 6.8171L6.71922 11.1202V0.857047C6.71922 0.3821 7.12234 0 7.62341 0H8.82899C9.33006 0 9.73317 0.3821 9.73317 0.857047V11.1202L14.0582 6.8171C14.4086 6.46714 14.9925 6.45999 15.3504 6.80281Z" fill="white"/>
</svg>
