<svg width="125" height="114" viewBox="0 0 125 114" fill="none" xmlns="http://www.w3.org/2000/svg">
<rect width="8.07273" height="8.07273" rx="4.03636" fill="#13B48D"/>
<rect y="34.9818" width="8.07273" height="8.07273" rx="4.03636" fill="#13B48D"/>
<rect y="69.9636" width="8.07273" height="8.07273" rx="4.03636" fill="#13B48D"/>
<rect x="38.8259" width="8.07273" height="8.07273" rx="4.03636" fill="#13B48D"/>
<rect x="38.8259" y="34.9818" width="8.07273" height="8.07273" rx="4.03636" fill="#13B48D"/>
<rect x="38.8259" y="69.9636" width="8.07273" height="8.07273" rx="4.03636" fill="#13B48D"/>
<rect x="77.6521" width="8.07273" height="8.07273" rx="4.03636" fill="#13B48D"/>
<rect x="77.6521" y="34.9818" width="8.07273" height="8.07273" rx="4.03636" fill="#13B48D"/>
<rect x="77.6521" y="69.9636" width="8.07273" height="8.07273" rx="4.03636" fill="#13B48D"/>
<rect y="105.036" width="8.07273" height="8.07273" rx="4.03636" fill="#13B48D"/>
<rect x="38.8259" y="105.036" width="8.07273" height="8.07273" rx="4.03636" fill="#13B48D"/>
<rect x="77.6521" y="105.036" width="8.07273" height="8.07273" rx="4.03636" fill="#13B48D"/>
<rect x="116.478" y="105.036" width="8.07273" height="8.07273" rx="4.03636" fill="#13B48D"/>
<rect x="116.478" width="8.07273" height="8.07273" rx="4.03636" fill="#13B48D"/>
<rect x="116.478" y="34.9818" width="8.07273" height="8.07273" rx="4.03636" fill="#13B48D"/>
<rect x="116.478" y="69.9636" width="8.07273" height="8.07273" rx="4.03636" fill="#13B48D"/>
</svg>
