<svg width="15" height="15" viewBox="0 0 15 15" fill="none" xmlns="http://www.w3.org/2000/svg">
<path d="M12.252 5.19153C12.0938 5.13879 11.9355 5.08899 11.7773 5.04211C11.8037 4.93372 11.8271 4.82532 11.8506 4.71692C12.2109 2.97083 11.9736 1.5675 11.1738 1.10461C10.4033 0.662231 9.14648 1.12219 7.875 2.22961C7.74902 2.33801 7.62598 2.45227 7.50879 2.56653C7.42969 2.49036 7.34766 2.41418 7.26562 2.34094C5.93262 1.15735 4.59668 0.659302 3.79688 1.12512C3.0293 1.57043 2.80078 2.89172 3.12305 4.54407C3.15527 4.70813 3.19043 4.86926 3.23145 5.03333C3.04395 5.08606 2.85937 5.14465 2.68652 5.20618C1.12207 5.74817 0 6.60364 0 7.4884C0 8.40247 1.19531 9.31946 2.82129 9.8761C2.95313 9.92004 3.08496 9.96399 3.21973 10.0021C3.17578 10.1779 3.1377 10.3507 3.10254 10.5294C2.79492 12.1554 3.03516 13.4445 3.80273 13.8868C4.59375 14.3439 5.92383 13.8751 7.21875 12.7413C7.32129 12.6505 7.42383 12.5568 7.52637 12.4572C7.65527 12.5831 7.79004 12.7032 7.9248 12.8204C9.17871 13.8986 10.418 14.3351 11.1826 13.8927C11.9736 13.4357 12.2314 12.0499 11.8975 10.3624C11.8711 10.2335 11.8418 10.1017 11.8096 9.96692C11.9033 9.94055 11.9941 9.91125 12.085 9.88196C13.7754 9.32239 15 8.41711 15 7.4884C15 6.60071 13.8457 5.73938 12.252 5.19153V5.19153ZM8.28809 2.70422C9.37793 1.755 10.3945 1.38293 10.8574 1.64954C11.3525 1.93372 11.543 3.08215 11.2324 4.59094C11.2119 4.69055 11.1914 4.78723 11.165 4.88391C10.5146 4.73743 9.85547 4.63196 9.19336 4.57336C8.8125 4.02844 8.39648 3.50696 7.94531 3.0177C8.05957 2.9093 8.1709 2.80676 8.28809 2.70422V2.70422ZM4.89844 9.00891C5.04785 9.26379 5.2002 9.51868 5.36133 9.7677C4.9043 9.7179 4.4502 9.64465 4.00195 9.54797C4.13086 9.1261 4.29199 8.68958 4.47949 8.24426C4.61426 8.50208 4.75195 8.75696 4.89844 9.00891V9.00891ZM4.01074 5.4845C4.43262 5.39075 4.88086 5.31457 5.34668 5.25598C5.19141 5.49915 5.03906 5.74817 4.89551 6.00012C4.75195 6.24915 4.61133 6.50403 4.47949 6.76184C4.29492 6.32532 4.13965 5.89758 4.01074 5.4845ZM4.81348 7.50305C5.00684 7.09876 5.21777 6.70325 5.44043 6.3136C5.66309 5.92395 5.90332 5.54602 6.15527 5.17395C6.59473 5.14172 7.04297 5.12415 7.5 5.12415C7.95703 5.12415 8.4082 5.14172 8.84473 5.17395C9.09375 5.54309 9.33106 5.92102 9.55664 6.30774C9.78223 6.69446 9.99316 7.08997 10.1924 7.49133C9.99609 7.89563 9.78516 8.29407 9.55957 8.68665C9.33691 9.07629 9.09961 9.45422 8.85059 9.82922C8.41406 9.86145 7.95996 9.8761 7.5 9.8761C7.04004 9.8761 6.59473 9.86145 6.16406 9.83508C5.90918 9.46301 5.66895 9.08215 5.44336 8.69251C5.21777 8.30286 5.00977 7.90735 4.81348 7.50305ZM10.1045 9.00305C10.2539 8.74524 10.3945 8.4845 10.5322 8.22083C10.7197 8.64563 10.8838 9.07629 11.0273 9.51868C10.5732 9.62122 10.1133 9.70032 9.65039 9.75305C9.80859 9.50696 9.95801 9.255 10.1045 9.00305ZM10.5264 6.76184C10.3887 6.50403 10.248 6.24622 10.1016 5.99426C9.95801 5.74524 9.80859 5.49915 9.65332 5.25598C10.125 5.31457 10.5762 5.39368 10.998 5.49036C10.8633 5.92395 10.7051 6.34583 10.5264 6.76184V6.76184ZM7.50586 3.46594C7.81348 3.79993 8.10352 4.15149 8.37305 4.51477C7.79297 4.4884 7.20996 4.4884 6.62988 4.51477C6.91699 4.13684 7.21289 3.78528 7.50586 3.46594ZM4.10742 1.67004C4.59961 1.38293 5.69238 1.79309 6.84375 2.81262C6.91699 2.87708 6.99023 2.94739 7.06641 3.0177C6.6123 3.50696 6.19336 4.02844 5.80957 4.57336C5.14746 4.63196 4.49121 4.7345 3.84082 4.87805C3.80273 4.72864 3.77051 4.57629 3.73828 4.42395C3.46289 3.00598 3.64453 1.93665 4.10742 1.67004V1.67004ZM3.38965 9.3927C3.2666 9.35754 3.14648 9.31946 3.02637 9.27844C2.40234 9.08215 1.69336 8.77161 1.18066 8.36438C0.884766 8.1593 0.685547 7.8429 0.629883 7.4884C0.629883 6.95227 1.55566 6.26672 2.8916 5.8009C3.05859 5.74231 3.22852 5.68958 3.39844 5.63977C3.59766 6.27551 3.83789 6.89954 4.11621 7.50305C3.83496 8.11536 3.5918 8.74817 3.38965 9.3927V9.3927ZM6.80566 12.2638C6.32227 12.7062 5.7627 13.0577 5.15332 13.298C4.82812 13.4532 4.45313 13.4679 4.11914 13.3361C3.65332 13.0665 3.45996 12.0323 3.72363 10.6407C3.75586 10.4767 3.79102 10.3126 3.83203 10.1515C4.48828 10.2921 5.15039 10.3888 5.82129 10.4386C6.20801 10.9865 6.63281 11.5109 7.08691 12.0031C6.99316 12.0939 6.89941 12.1818 6.80566 12.2638ZM7.52344 11.5519C7.22461 11.2296 6.92578 10.8722 6.63574 10.4884C6.91699 10.5001 7.20703 10.506 7.5 10.506C7.80176 10.506 8.09766 10.5001 8.39062 10.4855C8.12109 10.8575 7.83105 11.212 7.52344 11.5519V11.5519ZM11.3525 12.4308C11.3262 12.7882 11.1504 13.1222 10.8691 13.3478C10.4033 13.6173 9.41016 13.2657 8.33789 12.3458C8.21484 12.2404 8.0918 12.1261 7.96582 12.0089C8.41406 11.5138 8.82715 10.9894 9.20215 10.4386C9.87305 10.3829 10.541 10.2804 11.2002 10.131C11.2295 10.2511 11.2559 10.3712 11.2793 10.4884C11.4229 11.1212 11.4463 11.7804 11.3525 12.4308V12.4308ZM11.8857 9.28137C11.8037 9.30774 11.7217 9.33411 11.6367 9.35754C11.4316 8.71887 11.1797 8.09485 10.8896 7.4884C11.1709 6.89075 11.4082 6.27551 11.6074 5.64563C11.7598 5.68958 11.9063 5.73645 12.0469 5.78332C13.4121 6.25207 14.3701 6.94934 14.3701 7.48254C14.3701 8.05676 13.3477 8.79797 11.8857 9.28137ZM7.5 8.84192C8.24121 8.84192 8.8418 8.24133 8.8418 7.50012C8.8418 6.75891 8.24121 6.15833 7.5 6.15833C6.75879 6.15833 6.1582 6.75891 6.1582 7.50012C6.1582 8.24133 6.75879 8.84192 7.5 8.84192Z" fill="#62DAFA"></path>
</svg>
