<svg xml:space="preserve" style="enable-background:new 0 0 15 15;" viewBox="0 0 15 15" y="0px" x="0px" xmlns:xlink="http://www.w3.org/1999/xlink" xmlns="http://www.w3.org/2000/svg" id="Capa_1" version="1.1">
<style type="text/css">
	.st0{fill:#764ABC;}
</style>
<path d="M10.3,10.3c0.5-0.1,0.9-0.5,0.9-1c0-0.5-0.5-1-1-1h0c-0.6,0-1,0.5-1,1c0,0.3,0.1,0.5,0.3,0.7
	c-0.6,1.2-1.6,2.1-3,2.8c-1,0.5-2,0.7-2.9,0.6c-0.8-0.1-1.4-0.5-1.8-1.1C1.1,11.5,1,10.5,1.5,9.5c0.3-0.7,0.9-1.2,1.2-1.4
	C2.7,7.9,2.6,7.5,2.5,7.2c-2.6,1.9-2.4,4.5-1.6,5.7c0.6,0.9,1.8,1.5,3.1,1.5c0.4,0,0.7,0,1.1-0.1C7.5,13.7,9.3,12.4,10.3,10.3
	L10.3,10.3z M13.5,8.1c-1.4-1.6-3.4-2.5-5.7-2.5H7.5C7.3,5.2,6.9,5,6.6,5h0c-0.6,0-1,0.5-1,1c0,0.5,0.5,1,1,1h0C7,7,7.3,6.8,7.5,6.4
	h0.3c1.4,0,2.7,0.4,3.9,1.2c0.9,0.6,1.6,1.4,1.9,2.3c0.3,0.8,0.3,1.5,0,2.1c-0.5,1-1.4,1.5-2.5,1.5c-0.7,0-1.4-0.2-1.8-0.4
	c-0.2,0.2-0.6,0.5-0.8,0.7c0.8,0.4,1.6,0.6,2.3,0.6c1.7,0,3-1,3.5-1.9C14.9,11.4,14.8,9.6,13.5,8.1L13.5,8.1z M4.3,10.6
	c0,0.5,0.5,1,1,1h0c0.6,0,1-0.5,1-1c0-0.5-0.5-1-1-1h0c0,0-0.1,0-0.1,0c-0.7-1.2-1-2.6-0.9-4c0.1-1.1,0.4-2,1.1-2.8
	c0.5-0.7,1.5-1,2.2-1c1.9,0,2.7,2.4,2.8,3.3c0.2,0.1,0.6,0.2,0.9,0.3c-0.2-2.9-2-4.5-3.8-4.5c-1.6,0-3.1,1.2-3.7,2.9
	c-0.8,2.3-0.3,4.5,0.7,6.3C4.3,10.2,4.2,10.4,4.3,10.6L4.3,10.6z" class="st0"></path>
</svg>
